<?xml version="1.0" encoding="utf-8"?>
<!-- Generator: Adobe Illustrator 13.0.0, SVG Export Plug-In . SVG Version: 6.00 Build 14948)  -->
<!DOCTYPE svg PUBLIC "-//W3C//DTD SVG 1.1//EN" "http://www.w3.org/Graphics/SVG/1.1/DTD/svg11.dtd">
<svg version="1.1" id="Layer_1" xmlns="http://www.w3.org/2000/svg" xmlns:xlink="http://www.w3.org/1999/xlink" x="0px" y="0px"
	 width="504px" height="360px" viewBox="0 0 504 360" style="enable-background:new 0 0 504 360;" xml:space="preserve">
<style type="text/css">
<![CDATA[
	.st0{fill:#71F6F0;}
]]>
</style>
<g>
	<g>
		<path class="st0" d="M307.75,81.25c1.8,0.3,3.3,0.91,2.6,0.91c3.72,0.33,3.68,0.85,4.32,0.23c2.4,0.21,4.76,1.28,2.05,0.94
			c2.27,0.36,4.51,0.8,6.75,1.3l-3.93-1.2c1.25-0.32,6.28,1.94,7.73,1.61l-7.2-1.96l0.41-0.1c-1.7-0.21-4.9-1.05-6-1.4
			c0.2-0.05,0.12-0.24,1.41,0.05c-8.81-2-2.6,0.5-9.95-0.78C306.41,80.91,306.97,81.03,307.75,81.25z"/>
		<path class="st0" d="M300.43,78.54c-1.07,0.07-2.15,0.23-3.23,0.36c-1.74-0.25-3.48-0.55-5.23-0.76c-0.09,0.26-3.93,0.2-1.36,0.61
			c0.51,0,1.52-0.03,2.32,0.09c-0.64,0.49-7-0.22-5.49,0.45c4.15,0.15,4.77,0.28,7.35,0.13c3.79,0.43,6.51,0.99,8.23,1.48
			c1.13,0.09,1.34-0.23,2.77-0.08c-0.31-0.04-0.61-0.08-0.97-0.13l-0.01-0.86c-1.22-0.01-2.33-0.27-3.65-0.45
			c2.08,0,4.19-0.07,6.28,0.01c-1.83-1.14-7.96-1.68-10.36-2.21C300.01,78.24,294.66,77.21,300.43,78.54z"/>
		<path class="st0" d="M305.8,80.82l0.15,0.02L305.8,80.82z"/>
		<path class="st0" d="M334.62,246.82c0.92-0.86,0.97-1.32,1.04-1.51c-3.26,3.38-6.81,6.48-10.49,9.42c0.48-0.09,3.8-2.49,1.78-0.64
			c1.08-0.6,3.86-3.09,4.01-3.72l-0.54,0.94c2.12-2.52,4.31-3.47,2.94-1.8l0.2-0.19c1.89-2.44,3.47-5.1,5.08-7.66
			C336.32,243.99,337.39,243.95,334.62,246.82z"/>
		<path class="st0" d="M192.13,66.48c1.87,0.01,2.1-0.06,1.9-0.15C193.35,66.35,192.71,66.4,192.13,66.48z"/>
		<path class="st0" d="M339.68,239.8l1.32-2.51C340.42,238.25,339.96,239.13,339.68,239.8z"/>
		<polygon class="st0" points="330.8,259.57 330.89,259.62 331.77,258.54 331.74,258.56 		"/>
		<path class="st0" d="M355.85,181.28c-0.04-0.29-0.06-0.54-0.1-0.89L355.85,181.28z"/>
		<path class="st0" d="M296.01,281.77c2.1-0.93,4.21-1.78,6.23-2.86c-0.75,0.57,2.27-0.76,1.04,0.05c0.47-0.24,2.69-1.26,2.02-1.12
			l-1.28,0.55c3.04-2.04,0.98-1.35,6.08-4.41c-3.47,1.25-4.77,2.24-6.46,3.25c-0.59,0.3-1.09,0.53-1.6,0.77
			c-1.6,1.06-3.26,1.99-4.94,2.91L296.01,281.77z"/>
		<path class="st0" d="M280.46,81.78l0.09-0.02L280.46,81.78z"/>
		<path class="st0" d="M280.9,81.66l-0.35,0.1C280.91,81.79,282.2,82.21,280.9,81.66z"/>
		<path class="st0" d="M339.38,240.9c-0.05-0.15,0.06-0.54,0.29-1.1c-0.33,0.63-0.65,1.27-1.04,1.85
			C338.84,241.44,339.15,241.18,339.38,240.9z"/>
		<path class="st0" d="M337.28,245.46c-1.15,1.37-2.45,2.6-3.72,3.85l-1.19,1.63C333.72,249.38,335.55,247.8,337.28,245.46z"/>
		<path class="st0" d="M355.79,189.33c-0.24-10.52,0.91,2.58,1.05-2.27c-0.21-2.95-0.76-3.96-0.99-5.78
			c0.87,8.34-1.18-1.03-0.72,7.32c-0.55-1.18-1.05-5.95-1.05-8.78c0.35-3.27,0.75,2.73,1.42,3.42c-0.37-3.36-0.41-2.76-0.94-4.14
			c-0.52-5.31-2.73-10.6-2.64-13.92c-1.19-3.59-1.53-3.27-2.51-5.23c-0.85-0.13,1.47,5.41,1.08,6.99c-0.01-0.3-0.02-0.88,0.12-0.75
			l0.61,3.23c-0.48-3.1,0.81,0.25,1.26,1.88c0.35,1.18,0.64,3.57,0.43,3.27l-0.44-1.78c0.1,2.36,1.41,5.06,1.26,7.59
			c-0.16,0.15-0.29-0.78-0.41-0.91c0.6,2.71,1.09,5.39,1.31,9.49l-0.69-2.36c0.85,3.24,0.49,10.76-1.02,15.66
			c0.22-0.53,0.5-1.52,0.52-0.9c-0.38,2.99-1.27,5.11-1.39,3.67c0.06,3.04-3.37,10.51-4.47,14.34c-1.28,6.11-3.65,12.08-6.58,17.92
			c0.38-0.62,0.8-1.27,1.27-1.91c1.48-1.08,2-1.91,0.7,0.98c1.48-2.69,0.38-2.04,2.91-5.79c-0.79,1.6-0.26,2.51,2.03-1.25
			c4.9-9.89,5.6-17.4,6.49-27.14c0.64-0.25,1.58-7.96,1.55-11.75c0.59,1.46,0.59,4.29,0.34,7.22c0.23-1.83,0.57-4.98,0.51-7.35
			L355.79,189.33z"/>
		<path class="st0" d="M353.45,213.93l0.38-0.75C353.73,213.3,353.62,213.53,353.45,213.93z"/>
		<path class="st0" d="M356.19,198.54l0.05,0.04l0.05-0.93C356.26,197.96,356.22,198.31,356.19,198.54z"/>
		<path class="st0" d="M341.85,239.57c-0.3,0.6-0.58,1.01-0.88,1.62c0.22-0.35,0.51-0.77,0.78-1.19
			C341.99,239.6,342.08,239.38,341.85,239.57z"/>
		<path class="st0" d="M339.81,240.76l0.06-0.4l-0.48,0.54C339.42,241.03,339.54,241.02,339.81,240.76z"/>
		<path class="st0" d="M351,148.33l-0.56-0.91C350.73,147.99,350.89,148.22,351,148.33z"/>
		<path class="st0" d="M355.85,177.52c0.6,3.67,0.83,0.34,1.29,5.6l-0.07-1.55c0.68,3.75,0.73,10.46,0.18,14.91
			c-0.24-0.53-0.61,2.67-1.01,2.09c-0.18,3.04-0.83,5.98-0.59,7.64c-0.57,1.8-0.99,4.68-1.82,6.95c0.53-0.91-0.14,3.59,1.23-2.18
			c-0.09,0.47,0.05,0.2-0.04,0.67c1.41-3.58,1.2-5.22,1.72-8.45c0.62-1.89-0.16,3.24,0.29,1.44c0.74-4.04,1.95-12.83,0.79-12.59
			c-0.04-2.98,0.19-3.39,0.38-4.29c-0.92-4.66-1.29-17.6-2.89-17.27c0.5,1.67,0.77,4.46,1.5,6.91L355.85,177.52z"/>
		<path class="st0" d="M345.62,234.37c0.14-0.19,0.31-0.45,0.43-0.61L345.62,234.37z"/>
		<path class="st0" d="M307.49,262.19l0.93-1.55c7.55-4.43,10.27-6.09,16.23-10.82c0.53-0.28-0.14,0.37-0.47,0.71
			c4.27-3.28,9.91-8.97,12.14-12.14c1.04-1.31,4.04-4.6,3.2-3.13c0.46-0.68,0.98-1.47,1.51-2.25c0.42-0.01-1.13,1.79-0.99,1.97
			c0.49-0.57,0.72-0.77,0.73-0.98c-0.53,1.19,1.73-0.39-2.01,4.29c-2.02,1.33,2.51-3.3,1-2.74c-1.23,1.53-0.83,1.56-0.86,1.75
			c-1.58,1.96-1.7,1.77-1.76,1.54c-0.41,0.92-2.86,2.97-3.46,4.23c-3.4,3.53-0.22-0.59-2.51,1.63l-0.76,1.88
			c-1.3,1.22-2.67,2.36-4.11,3.42c-5.87,5.12,1.95,0.59-5.01,6.32c0.7-1.06-2.61,0.52-6.26,2.53c2.15-1.29,5.58-4.38,8.29-6.09
			c-3.96,2.22,4.8-3.9,2.45-3.09c-1.42,1.75-4.38,3.99-6.84,5.49l0.72-0.62c-2.51,1.73-4.04,3.68-7.87,5.59
			c-1.84,1.05-1.61,0.65-1.38,0.3C308.9,261.42,307.58,262.35,307.49,262.19z M311.42,259.8c0.84-0.42,1.67-0.87,2.47-1.36
			C313.26,258.69,312.37,259.24,311.42,259.8z"/>
		<path class="st0" d="M257.84,78.46l0.93-0.06C258.56,78.38,258.21,78.42,257.84,78.46z"/>
		<path class="st0" d="M203.94,271.48l-1.56-0.85C202.99,270.97,203.49,271.24,203.94,271.48z"/>
		<path class="st0" d="M169.88,249.56l-1.95-1.89C168.65,248.46,169.27,249.04,169.88,249.56z"/>
		<polygon class="st0" points="237.16,82.77 237.08,82.78 236.7,82.94 		"/>
		<path class="st0" d="M148.65,172.29c0.15-0.39,0.3-0.82,0.47-1.42C149.02,170.92,148.85,171.46,148.65,172.29z"/>
		<polygon class="st0" points="170.25,249.9 170.15,249.77 169.88,249.56 		"/>
		<path class="st0" d="M218.9,281.11l1.15,0.33C219.52,281.27,219.17,281.19,218.9,281.11z"/>
		<path class="st0" d="M217.5,277.91c0.38,0.14,0.75,0.27,1.04,0.35L217.5,277.91z"/>
		<path class="st0" d="M278.83,284.65c0.8-0.16,1.57-0.42,2.35-0.63C280.02,284.3,279.34,284.52,278.83,284.65z"/>
		<path class="st0" d="M223.29,280.72l0.4,0.02C223.36,280.65,223.19,280.64,223.29,280.72z"/>
		<polygon class="st0" points="273.01,79.67 272.87,79.69 272.81,79.79 		"/>
		<path class="st0" d="M278.71,78.37l2.08-0.04C280.02,78.3,279.27,78.3,278.71,78.37z"/>
		<path class="st0" d="M162.26,139.95c0.43-0.49,1.31-1.69,1.08-1.02C163.8,137.79,163.39,137.64,162.26,139.95z"/>
		<path class="st0" d="M262.21,85.79c0.35-0.15,0.78-0.28,1.22-0.41C262.61,85.59,261.9,85.76,262.21,85.79z"/>
		<path class="st0" d="M263.44,85.38c0.4-0.1,0.84-0.21,1.2-0.31L263.44,85.38z"/>
		<path class="st0" d="M161.71,157.08c-0.11,0.12-0.24,0.31-0.38,0.59C161.48,157.62,161.6,157.4,161.71,157.08z"/>
		<path class="st0" d="M282.46,78.51c0.37-0.25,9.43-0.23,1.83-0.69c0.32-0.68,4.9-0.02,6.94-0.02c-1.46-0.25,0.77-0.35,0.34-0.61
			c-1.02,0-2.23,0.1-3.9-0.06c-0.75-0.34,1.8-0.36,3.78-0.11c-2.42-0.5,3.15-0.27-0.3-0.78c-7.43-0.43-12.72-0.09-17.89,0.89
			c4.21-0.27,8.93-0.39,12.38,0.02l-1.47,0.5c-3.88-0.63-6.3-0.27-10.12-0.24c2.87,0.06,5.74,0.09,8.6,0.31
			c4,0.57,1.31,0.6-1.85,0.6C281.56,78.36,282.27,78.41,282.46,78.51z"/>
		<path class="st0" d="M276.75,83.23l0.14,0.01c0.12-0.02,0.27-0.04,0.35-0.06L276.75,83.23z"/>
		<path class="st0" d="M276.29,273.93l0.64-0.32C276.38,273.8,276.22,273.89,276.29,273.93z"/>
		<path class="st0" d="M271.7,80.72L271.7,80.72L271.7,80.72z"/>
		<path class="st0" d="M259.24,275.87l0.09-0.05L259.24,275.87z"/>
		<path class="st0" d="M254.58,287.64l0.13,0.07C255.11,287.68,254.91,287.66,254.58,287.64z"/>
		<path class="st0" d="M259.23,275.92l0.01-0.05L259.23,275.92z"/>
		<path class="st0" d="M182.19,247.54c0,0,0.14,0.25,0.39,0.6C182.74,248.21,182.65,248.05,182.19,247.54z"/>
		<polygon class="st0" points="194.91,258.57 194.91,258.57 195.14,258.79 		"/>
		<path class="st0" d="M158.04,142.49c-0.43,0.8-0.73,1.4-0.98,1.92C157.38,143.83,157.71,143.2,158.04,142.49z"/>
		<path class="st0" d="M259.33,275.81c0.17-0.07,0.41-0.14,0.81-0.24C259.7,275.68,259.47,275.75,259.33,275.81z"/>
		<polygon class="st0" points="163.77,229.38 164.09,229.79 163.95,229.51 		"/>
		<path class="st0" d="M159.97,221.28c0.18,0.25,0.3,0.35,0.42,0.48c-1.67-2.74-3.35-8.35-4.08-8.85c0.25,1.05,1.99,6.42,1.35,5.65
			c0.91,2.05,2.05,5.19,2.64,6.25c-1.29-3.48,0.2-0.53,1.6,1.52c0.92,2.06-0.61-0.15,0.22,1.62c0.84,1.53,1.85,2.97,2.77,4.45
			l-2.33-3.93l1.19,0.9l-0.29-0.37C159.61,222.39,163.7,228.14,159.97,221.28z"/>
		<path class="st0" d="M160.4,221.76c0.23,0.42,0.45,0.78,0.64,1.05C160.72,222.16,160.55,221.93,160.4,221.76z"/>
		<path class="st0" d="M154.06,191.71c-0.03-0.39-0.06-0.8-0.12-1.33C153.96,190.64,154,191.22,154.06,191.71z"/>
		<path class="st0" d="M329.42,253.37c-0.22-0.05-3.81,2.54-3.53,2.78c1.08-0.76,2.1-1.6,3.17-2.41L329.42,253.37z"/>
		<path class="st0" d="M185.69,115.46l-1.09,1.04l-0.16,0.25C184.7,116.59,185.35,115.83,185.69,115.46z"/>
		<path class="st0" d="M156.97,217.34c0.37,0.75,0.56,1.06,0.7,1.22C157.44,218.08,157.21,217.64,156.97,217.34z"/>
		<path class="st0" d="M186.6,116.01c0.55-0.33,1.38-0.82,1.58-0.79c0.97-0.85,1.48-1.65,2.43-2.56
			C189.52,113.67,188.23,114.81,186.6,116.01z"/>
		<path class="st0" d="M190.69,112.59l-0.08,0.07L190.69,112.59z"/>
		<path class="st0" d="M331.57,251.82l0.8-0.88l-0.37,0.51l2.31-2.01c0.25-0.27,0.52-0.57,0.87-0.91c-0.13,0.15-0.21,0.28-0.25,0.38
			l0.75-0.64c1.43-2.03,5.29-6.67,6.07-8.26c1.32-1.88,2.92-4.17,3.88-5.64c-0.9,1.35-2.08,3.16-1.51,2.77
			c1.99-2.61,3.83-3.4,6.05-8.76l-1.66,2.93c0.93-2.38,2.06-4.63,2.79-7.04c1.53-2.17-1.2,3.58-1.55,4.6
			c2.53-5.26,5.49-9.33,5.63-12.2c0.52-0.21,1.73-0.47,2.74-4.26c-1.28,2.54,0.28-2.35-0.91-0.3c0.08-1.36,1.32-4.11,1.02-4.41
			l0.1,0.39c2.15-6.31,1.18-8.7,0.99-11.5c0.48-7.79,0.43-11.41-0.15-17.78c0.29-0.28,0.9-2.13,0.47-4.7
			c-0.49-1.15-1.97-6.8-2.72-7.23c0.83,4.52,1.4,3.55,1.95,6.26c-0.23,2.37-0.55,0.31-0.41,3.44c0.03-2.56-2.41-11.1-2.66-13.87
			l0.34,0.91c-1.05-4.23,0.28-5.67-3.37-12.21c-0.52-1.06-1.11-2.09-1.76-3.08c0.13,0.13,0.19,0.12,0.28,0.18
			c-2.49-5.21-1.14-4.16-4.8-9.44c0.28,0.41,0.18,0.11,0.46,0.52c-1.52-3.35-4.23-6-5.9-8.17c-0.65-1.61,0.64,0.02,1.51,0.69
			c-3.66-5.33-8.78-10.15-12.04-12.49l-2.7-3.13c1.88,1.57,4.31,3.4,4,2.66c-1.68-1.56-1.48-1.13-3.74-3.44
			c0.63,0.13,1.77,0.91,3.11,1.74c-4.41-5.13-1.79-0.3-4.58-4.2c-1.56-1.43-2.74-1.94-3.16-1.8l-2.63-2.79
			c-0.59,0.04-4.29-2.85-6.84-4.58c-0.42-0.06,1.69,1.88,2.73,2.43c-0.41,0.15-3.12-1.66-4.8-2.91c-0.01-1.35-11.56-7.41-8.9-6.99
			c-8.21-4.74-20.29-10.35-26.25-12.23c-1.78-1.08-5.71-2.55-3.19-2.09c-7.14-2.72-11.17-3.07-18.31-5.5
			c-0.56-0.3,3.27,0.99,3.11,0.6c-4.83-1.07-8.49-3.02-16.03-4.56c1.26,0.29,1.67,0.18,1.87,0.12c0.09,0.19-3.14-0.42-5.1-0.72
			c-1.07-0.33,1.48,0.21,0.89-0.04c-14.41-3.66-25.83-4.08-40.46-5.2c4.19,0.31,5.83-0.18,5.9-0.43c-1.37-0.16-2.74-0.24-4.11-0.35
			c-1.61,0.2-4.7-0.04-7.29,0.11c-0.31-0.14-1.56-0.33-0.27-0.42c-8.14-0.97-12.74,0.73-22.66,0.85c3.99-0.62,8-1.16,12.04-1.59
			l-3-0.43c1.78-0.2,3.56-0.45,5.34-0.59c-3.2-0.42-5.97,0.49-6.36-0.01c0.67-0.14,2.3-0.11,2.35-0.38
			c-3.08-0.15-3.31,0.16-5.62,0.36c6.05-1.25,18.05-0.96,24.48-0.66c1.02,0-0.88,0.17-1.07,0.26c2.62,0.18,4.17,0.54,7.47,0.73
			c2.08-0.2-1.53-0.49-3.15-0.65c0.25-0.35,1.07-0.27,2.89-0.13c0.35,0.46,9.9,1.25,12.13,2.21c9.6,1.35-1.34-1.51,7.99,0.2
			l2.69,1.06c5.5,0.51,12.54,1.73,18.57,3.38l-1.28-0.3c-0.91,0.03,0.46,0.5,1.05,0.79c4.48,1.44,8.75,1.95,11.3,3.36
			c5.32,0.97,13.95,3.55,19.77,5.68c1.28,1.25-7.71-2.42-10.28-2.81l5.24,1.97c-3.25-1.2-4.6-1.47-6.71-1.72
			c4.55,1.79,6.29,1.72,10.67,3.31c-0.41,0.05,0.12,0.4,2.09,1.23l0.75-0.21c0.02,0.05,0.23,0.18,0.83,0.46
			c2.59,0.98,5.11,2.1,7.68,3.15c-1.51-0.92-1.41-1.35-3.36-2.25c0.58,0.58-1.1-0.14-3.05-1.03c1.86,0.45-1.82-1.07-1.68-1.28
			c3.97,1.7,8.82,3.85,11.39,5.05l0.62,0.82c3.65,1.89,7.52,3.89,9.91,5.35l-0.88-0.23c4.19,2.61,8.46,4.99,11.81,7.86
			c3.9,2.1,8.58,5.18,11.7,7.15c1.99,0.72,9.24,9.29,13.07,12.61c0.2,0.27-2.61-2.32-4.01-3.35c2.31,2.4,4.53,4.01,4.77,5.19
			c-4.77-5.81-0.1,0.63-2.45-1.81c2.32,2.62,4.81,5.34,5.98,6.63c-3.49-4.5,1.94,1.05-1.87-3.3c3.27,3.11,7.09,7.99,9.73,12.68
			c-0.25,0.09-0.02,0.73,0.88,2.51l1.14,1.21c1.19,2.21-2.82-3.98-0.42,0.46c3.27,4.18,6.39,14.22,8.12,16.02
			c0.93,3.87-3.05-6.92-1.5-1.13c-1.7-3.05-3-7.67-4.15-8.39c1.62,2.97,0.12,1.3,0.95,3.3l1.75,3.33l-0.29-0.78
			c2.96,5.63,5.57,15.41,6.64,23.4c1.57,6.67,2.72,11.49,2.23,19.87c-0.12-2.48-1.01,6.88-1.16,1.59c-0.56,3.8-0.94,7.57-0.71,7.7
			c0.68-3.33,0.36-1.15,0.89-3.97c0.09,1.96-0.81,6.37-1.35,8.12c0.2-0.83,0.07-0.53,0.01-0.73c-1.19,3.89-0.18,1.96-0.82,4.85
			c-0.55,0.82-2.09,6.17-3.29,8.59c-0.23,1.31-0.67,2.54-1.01,3.82c0.52-2.13-1.7,3.35-2.36,3.69c-1.19,2.51-1.67,4.99-4.25,8.42
			c0.81-1.58-2.45,3.04-2.84,2.85c-4.75,5.42-6.67,10.17-12.22,14.38c0.09-0.22,0.9-1.38-0.63-0.08c-1.02,1.22-3.22,2.89-4.48,4.01
			l0.03-0.04l-0.06,0.07c-0.62,0.54-0.99,0.91-0.94,1.01c-2,2.12-2.94,3.37-7.48,6.88c0.67,0.26,4.5-2.75,6.1-4.12l1.16-1.46
			c1.8-0.53,3.91-3.39,5.08-4.04c-2.03,2.91-9.95,9.01-14.88,12.39c3.46-1.32,10.22-5.67,15.42-10.38l-2.56,1.74l2.81-2.34
			l-3.05,1.85c2.76-2.07,4.83-4.23,7.1-6.37c-2.65,2.52-4.13,2.99-2.56,1.66c3.27-2.44,2.89-3.09,4.98-5.35
			c-1.19,1.25-2.75,2.85-1.95,1.62c4.61-4.03,5.39-5.54,9.31-9.57c-0.99,0.14,3.9-5.81,3.8-6.87l-1.5,2.1
			c0.93-1.57,1.71-3.23,2.45-4.9c3.08-4.07-1.64,4.25,2.6-2.24c3.21-6.41,2.42-6.57,4.27-11.83c-0.1,1.92-1.37,6.23-3.43,10.3
			l1.38-2.4c-0.24,1.51-3.33,7.03-4.99,9.71c2.18-4.75-1.38,2.01-3.19,3.62c0.14,0.63,1.96-2.17,0.04,1.3
			c2.01-3.1,2.5-3.41,4.94-7.46c-5.5,8.52-3.57,8.7-9.51,15.44c2.52-3.26-1.43,0.67-1.97,0.82c-1.24,1.47-3.83,4.39-4.96,5.52
			l1.53-0.52c-3.55,3.84-5.84,3.92-10,8.19c-0.35,0.81,4.12-3.23,3.35-2.48c-6.03,5.53-9.2,6.2-15.45,9.58
			c-0.24,0.39,0.06,0.71-1.96,2.24c0.48-0.73-1.23-0.02,1.07-1.64c-2.17,0.99-4.46,2.68-6.27,3.75c4.53-2.05-1.53,1.46-2.29,2.02
			c-2.36,1.06,0.54-0.71,1.91-1.5c-1.91,0.8-4.36,1.32-5.17,2.38c-0.26-0.41,4.77-3.39,8-5.38l-2.27,1.17
			c1.45-1.03,1.76-1.15,4.01-2.32c-2.33,0.92-2.29,0.48-1.93-0.07c0.31-0.1-0.11,0.18,0.19,0.08c1.83-0.89,3.13-1.75,2.6-1.72
			c1.3-1.38-2.63,1.06-3.96,1.46c-0.88,0.54-1.76,1.08-2.67,1.53c-2.85,2.1-5.77,4.15-8.84,6.01c-4.11,1.93-6.24,2.06-9.52,2.92
			l-0.75,0.73c-3.8,1.08-7.41,1.9-5.14,0.63c0.18,0.12,0.66-0.06,1.49-0.28c0.09-0.1,0.27-0.2,0.49-0.3l0.16-0.14
			c-3.96,1.39-6.55,1.88-6.77,2.01c6.77-2.3,0.13-0.95,1.1-2.07c-2.28,0.64-4.57,1.28-6.9,1.73c4.31-0.47,0.16,0.4-1.34,0.79
			c-0.48-0.33-5.69,0.86-8.21,1.04l0.17-0.12c-2.32,0.09-6.38,0.37-9.28,0.56c0.14,0.16-3.59,0.97-5.43,1.44
			c5.05,0.19,2.05,0.38,2.45,0.69c-0.52-0.03-1.47-0.04-1.58,0.03c-0.73,0.14,0.98,0.19,1.13,0.35c5.42-0.12,10.96-0.65,13.06-1.56
			c-1.65-0.09-2.77,0.54-4.62,0.45c2.63-0.55,6.01-0.87,10.42-1.42l1.5,0.16l4.36-0.99c-1.8,0.54-0.61,0.76-5.23,1.65
			c0.65,0.25,4.61-0.81,7.44-1.34l1.31-0.86c-0.49,0.43,5.54-0.91,1.36,0.48c-2.28,0.7-4.58,1.38-6.92,1.89l2.04,0.02l-5.98,1.15
			l1.37-0.52c-9.66,1.56-2.95-0.46-12.68,0.87c-3.03,0.85-6.4,1.02-12.47,0.55c4.4,0.12,0.47-0.44,2.14-0.72
			c-4.43-0.56-5.97-0.04-8.32-0.13c-1.1-0.49-1.86-0.87,2.1-0.32c0.57-0.66-5.23-0.53-5.49-1.32c-12.77-2.43-11.43,0.51-25.42-5.93
			l0.64-0.06c-8.94-3.51-13.76-6.37-21.55-10.85c-1.83-1.53-3.7-2.97-5.47-4.56c1.34,0.86,5.23,2.63,3.77,1.26
			c2.4,2.58,5.69,4.15,8.67,6.35c0.42,0.01-0.81-0.85-1.3-1.29c1.89,1.15,2.75,1.9,5.38,3.16c-0.05-0.21-2.77-1.86-0.61-0.83
			c1.1,0.74,2.18,1.55,3.31,2.24c4.91,2.01,2.81,0.18,8.4,2.81c-1.23-0.04-3.65-0.4-5.86-1.37c2.54,1.3-3.55-1.39-1.31-0.05
			c3.97,1.22,5.59,2.43,10.77,4.17c-0.62-0.17-0.82-0.12-2.07-0.6c2.31,1.15,5.01,2.08,7.56,3.1c-1.85-0.87,6.65,1.49,6.05,0.71
			c-8.22-2.52-6.16-1.53-14.96-5.36c2.48,0.98,6.03,1.72,7.82,1.75c0.07,0.05,0.2,0.11,0.48,0.22c1.58-0.02,0.19-0.66,0.53-1.56
			c-4.43-0.77-6.82-2.46-11.63-4.12c-1.1,0.1,2.42,1.82,4.82,2.65l-4.27-1.43l0.91,0.13c-3.43-1.63-6.88-3.25-10.19-5.13
			c1.93,0.98,2.71,1.08,3.82,1.36c-1.31-0.66-2.52-1.49-3.82-2.34c0.05,0.59-0.29,0.81-1.56,0.13c-6.4-3.64-9.53-6.37-11.47-8.31
			l-0.72-0.46c0.74,1.11-4.81-2.24-6.88-3.35c0.44-0.37-2.83-2.58-4.19-4.28c-1.24-0.33-0.71,1.37,1,3.44
			c4.3,2.76,2.56,1.36,4.91,2.23c2.3,1.41,4.49,2.95,6.85,4.21l-1.77-0.58c3.22,2.4,6.81,3.91,6.25,4.25
			c-2.06-0.69-4.81-2.9-6.83-3.69l2.1,1.65c-4.3-2.07-1.67-1.83-6.56-4.8c1.39,1.65-0.48-0.21-2.58-1.52
			c1.25,1.63,8.22,5.86,6.28,5.63c-2.72-1.4-7.48-6.78-10.99-8.79l0.21,0.05c-4.34-3.95-6.02-5.21-7.87-6.52
			c-1.47-2.09-4.15-4.38-5.84-6.57l0.25-0.11c-0.83-0.99-1.69-1.96-2.45-3.02c1.44,1.24,2.74,3.64,4.94,6.15l0.1-0.63
			c2.07,3.28,4.49,4.54,6.88,6.27c-3.46-2.6-8.07-8.96-9.4-9.2l-1.25-2.41l-0.88-0.94c-0.8-1.88,0.71-0.44,3.19,2.45
			c0.31,0.6,0.47,0.9,0.27,0.8c1.25,1.28,2.59,2.26,5.36,5.49l-1.71-1.52c3.49,4.02,7.21,7.12,8.88,7.95
			c-5.54-5.19-10.55-10.8-14.73-16.63c-2.16-1.06-4.08-2.87-5.51-3.29c-2.86-4.07-6.03-10.15-7.17-14.37l0.33,0.3
			c-0.71-1.99-1.4-3.8-1.99-5.32c-0.43-2.2,0.99,1.28,0.65-0.24c-0.9-2.19-1.53-4.48-2.26-6.74c0.54,0.33,2.05,6.09,3.07,8.73
			c-0.2-0.49-0.61-1.49-0.56-1.14c0.77,3.25,3.98,8.54,4.02,10.09c0.81,1.4-1.87-2.73,0.48,2.19c1.51,3.34,2.6,4.09,3,4.29
			c0.19-0.04-2.41-5.16-1.2-3.56c-1.4-2.43-2.1-3.35-3.39-6.71c1.17,2.55,3.28,5.7,3.68,7.16c3.08,4.57,3.85,3.13,2.57,0.96
			c-0.08,0.76-5.06-8.49-2.18-1.96c-2.03-2.55-4.42-7.97-6.08-11.88l0.15,0.15c-0.56-1.66-1.23-3.29-1.69-4.99
			c0.29,0.69,0.9,2.17,1.17,2.14c-0.95-2.24-1.79-4.54-2.54-6.87c1.31,3.92-0.23-2.56-0.3-4.43c-0.51-0.7-1.2-3.5-1.04-0.75
			c0.15,3.11,0.52,1.74,1.06,4.49c-0.45-1.26-0.98-2.52-1.36-3.81l0.01-0.35l-0.85-2.32c-0.56-5.44,1.35,2.24,0.25-4.66l-0.63,0.96
			c-0.74-8.16,0.99-18.44,1.82-24.01c0.1,1.61,0.61,2.37,1.4,0.36c-0.61,2.33-1.2,7.15-1.37,10.61c-0.15,0.67-0.57-4.4,0.21-8.13
			c-1.51,1.67-0.41,9.52-1.46,9.89c-0.53,9.74,0.99,7.2,1.12,15.42c0.54,0.04,0.58,2.28,1.1,2.63c0.4-2.49-1.4-10.81-0.84-16.12
			c0.02,0.52,0.06,1.55,0.17,1.76c0.25-3.75,0.18-5.3,0.25-7.93l-0.09,0.32c-0.1-4.63,0.72-2.78,1.27-5.4
			c0.01-1.05,0.91-4.67,0.41-4.16c0.45-1.56,0.98-3.1,1.55-4.62l-0.63,0.08c0.61-2.68,1.19-3.13,1.56-5.6l-0.47-0.27
			c-0.76,2.15-1.42,4.33-2,6.55c0.7-3.41-0.32-1.08,0.63-4.8c-0.69,4.25,1.16-2.82,1.75-3.06l0.66-2.74l-0.11,0.72
			c1.01-1.97,0.66-2.55,1.73-4.89c-1.44,2.67-2.46,4.45-3.28,8.26c0.49-2.8,2.21-8.17,2.76-9.43c0.9-2.85,2.24-4.53,3.49-6.99
			c-2.07,4.89,2.07-1.03-2.52,8.46c-0.02-0.22,0.33-1,0.51-1.28c-1.22,1.02-2.31,5.91-2.76,8.15c0.58-0.42-0.15,1.83,1.4-1.89
			c-0.68,1.17,0.28-3.52,2.13-6.93l0.5,0.95c0.7-1.71,1.6-3.33,2.39-5l-0.19,0.49c1.37-1.64,2.55-5.33,4.81-8.43
			c1.02-2.6,7.34-11.05,4.03-7.84c2.4-2.5,3.71-5.26,6.06-8.2c-1.12,1.09-2.17,2.25-3.22,3.41c2.98-4.73,2.34-3.17,4.53-7.2
			c0.48-0.18,1.29-0.78,0.85,0.05c5-5.59,13.2-12.37,16.32-15.49c4.25-3.13,5.43-2.87,11.43-7.11c1.27-0.89-1.48-0.1,2.88-2.33
			c0.31-0.11-3.75,2.87,0.91,0.11c3.02-2.54,8.15-3.97,12.47-6.54c2.54-0.82,6.75-2.65,6.05-1.79c-3.95,1.38-9.29,3.96-9.98,4.6
			c0.39-0.52-2.82,1-0.13-0.52c-5.82,2.54-3.57,2.04-8.63,4.63c-0.23,0.39,2.78-1.01,3.79-1.68c0.28,0.49-9.49,5.85-4.75,4.01
			c5.21-2.94,6.15-5.06,11.2-6.66c-1.74,1.21-4.79,2.45-6.8,4.3l3.92-1.72l2.56-1.81l-0.12,0.17c7.11-2.56,6.05-3.57,12.31-6.27
			c-3.87,0.91,0.46-1.44-2.45-0.69c4.27-1.73,7.55-2.56,7.77-1.94c-7.94,3.18-0.28,0.77-7.44,4.06c1.29-0.21-1.38,1.58,2.99,0.06
			c4.77-2.18-1.7-0.1,3.2-1.93c0.31-0.04,0.64-0.07,0.5,0.08c2.19-1.07,2.69-0.77,5.4-1.9l-0.63,0.32c3.56-0.54,3.66-1.53,6.79-1.75
			c-1.32-0.21,1.92-0.91,3.75-1.58c-3.1,0.5-4.97,0.01-10.98,1.75c-0.61,0.61-0.13,0.64-2.51,1.59c1.27-0.45,2.58-0.77,3.87-1.16
			c-0.82,0.29-1.44,0.57-2.18,0.86c-1.27,0.28-2.5,0.64-3.76,0.96c4.6-1.77,2.33-1.51,4.23-2.49c4.42-1.02,3.57-1.14,6.39-1.64
			c-0.14,0.61,8.72-0.99,13.91-1.16c-0.8,0.09-1.82,0.25-2.38,0.31c-3.65,0.9,2.63,0.13,2.78,0.27c0.89-0.21,1.77-0.47,2.67-0.65
			c-0.51,0.09-1.19,0.3-0.03,0.27c3.66-0.44,3.38-1.1,7.07-1.44c0.29,0.31-2.77,0.98-0.48,1.02c0.81,0.29,3.34,0.75,8.18,0.42
			c0.34-0.13,1.6-0.22,3.06-0.29c-0.2,0.02-0.46,0.04-0.55,0.06c1.08,0.09,2.15,0.25,3.22,0.4c-2.74,0.42-5.55-0.24-8.3,0.32
			l-0.21,0.54c-2.13,0.12-5.02,0.5-6.32,0.87c3.25-0.09,3.91-0.32,7.54-0.54c0.52,0.31-2.03,0.62-2.39,0.71l0.53-0.33
			c-4.35-0.23-6.42,0.85-11.76,1.34c-0.8,0.09-0.32-0.02-0.15-0.14c-4.23,1.07-8.57,1.06-12.56,2.62l1.28-0.57
			c-2.77,0.82-8.13,2.55-13.27,4.76l0.02,0.21c0.62-0.07-1.36,0.56-2.45,0.82l0,0c-2.55,1.15-4.98,2.27-6.93,3.26
			c0.69-0.16,1.55-0.39,2.53-0.7c0.72-0.54,5.56-2.07,4.74-2.33c2.33-0.43,5.81-1.99,7.55-2.2c-3.13,0.5,1.98-1.09,2.45-1.51
			c1.12,0.1,4.57-1.07,4.26-0.52c0.63-0.02-1.58,0.04-2.83,0.62c-3.11,1.16,5.97-0.97,2.06,0.35c5.01-1.48,11.83-2.47,17.16-3.33
			l-3.03,0.1c2.39-0.21,8.05-0.78,8.49-0.52c-1.78,0.13-3.86,0.27-6.11,0.62c-0.06,0.5,5.45-0.5,5.73-0.13
			c2.18-0.43,4.38-0.83,6.59-1.11l-2.91,0.01c1.83-0.38,7.93-0.05,12.43,0.24c-2.61,0.64-6.79-0.23-11.53,0.2
			c-3.42,0.34,2.13,0.65-1.1,0.89c0.84,0.14,2.95,0.11,3.99-0.09l1.28,0.11c-2.88,0.65-9.33,0.67-13.53,1.72
			c0.37-0.11,0.68-0.21,0.79-0.3c-3.3,0.01-6.63,0.48-9.78,1.12c1.71-0.03,2.35-0.27,3.31-0.48c0.14,0.15-2.85,0.62-3.95,0.99
			c2.97-0.25,0.61,0.3,2.49,0.14c-1.9,0.39-3.43,0.65-5.76,1.01c-1.25-0.02,0.93-0.52,0.63-0.79c-2.36,0.61-3.61,0.09-7,1.27
			c4.66-0.9-1.08,0.91-2.56,1.6l0.77-0.19c-1.35,0.77-2.55,1.11-3.65,1.05c1.82-0.66,3.65-1.05,3.02-1.28
			c-1.23,0.35-2.45,0.71-3.81,1.2l1.19-0.62c-2.05,0.54-4.03,1.3-6.04,1.94c-0.86,0.6-2.25,1.68-2.9,2.44
			c-1.53,0.21-3.41,1.19-4.67,1.88l0.56-0.39c-2.71,0.72-8.2,3.58-8.52,4.08c-1.97,0.6,11.95-7.71-0.73-1.47
			c-4.76,2.5-2.55,2.35-5.03,4.14c0,0,0.1-0.17-0.19-0.08c-2.05,1.11-2.09,1.51-3.64,2.64c1.25-0.62,3.03-1.58,3.51-2.03
			c-0.42,0.67-4.21,2.38-5.51,3.65c1.6-1.78-3.9,2.23-2.56,1c-4.07,2.25-7.72,5.67-9.25,7.59c-2.91,1.39-4.14,3.59-7.99,6.87
			c0.57-0.53,1.5-1.6,2.34-2.3c1.77-2.36-3.97,3.47-1.07,0.04c-0.63,0.73,0.13,0.23,0.79-0.5c1.24-1.19,2.3-2.43,1.82-2.31
			c-1.12,0.83-2.3,1.61-3.37,2.5l0.97-1.1c-1.66,1.32-3.35,2.64-4.96,4.04c-0.05,0.2,0.45-0.16,0.71-0.34
			c-5.38,5.1-10.35,12-13.88,17.39c0.3,1.63-7.49,13.98-8.16,19.27c0.09-1.43-0.23-2.39-0.84-1.7c0.41-1.08,0.71-3.54,2-5.87
			c0.39-0.29,2-3.12,1.34-1.11c3.19-6.53-1.03,0.58-0.51-1.55c-3.47,7.38-4.25,12.18-5.33,17.1l-0.2,0.08
			c-0.27,1.25-0.43,2.52-0.65,3.77c0.84-3,1.57-2.63,0.34,1.15l0.08-0.48c-0.87,2.14-1.34,6.86-1.72,10.37l0.25,2.42
			c-0.28,3.5-1.05,3.63-1.63,4.78c-0.04,5.61,0.97,8.79,1.96,12.59c-0.25,1.83,1.67,9.93,0.18,5.76c1.68,4.79,3.01,3.26,5.04,11.53
			l-1.14-1.92c2.79,7.77,9.93,17.07,12.09,20.13c-3.05-1.49,5.6,8.75,6.05,10.52c-0.12-0.47,2.25,1.63,2.72,1.8
			c0.42,0.57,1.18,1.46,2.26,2.08c-2.27-2.38,2.56,0.54-2.4-3.24c2.94,1.46,6.28,3.69,11.86,7.66l-0.39,0.37
			c-1.42-1.13-2.91-2.17-4.26-3.37c0.19,0.65-1.97-1.13-2.98-1.71c7.77,6.54-1.96,0.29,6.49,6.45c1.03,0.3,0.37,0.09,2.73,1.46
			c-1.08-0.69-1.48-0.51,0.25,0.63l1.89,0.73c2.6,2.75-5.4-2.85-3.12-0.62c-3.66-1.87-9.36-6.12-8.72-4.8
			c5.18,4.32,5.49,2.74,11.15,6.82l0.47,0.65c2.19,1.15,2.8,0.9,4.09,1.35c0.02,0.2,0.5,0.62,1.83,1.46
			c3.98,1.37,6.44,2.57,10.22,3.48c-9.31-3.98-7.54-4.2-16.6-9.21c1.42,0.79,7.82,4.31,8.56,3.88l-0.34,0.42
			c3.1,1.35,6.18,2.68,9.96,4.59l-2.46-0.84c5.17,2.06,8.29,4.67,12.64,5.27c-1.42-0.56-2.58-0.91-3.51-1.25
			c2.78,0.79,5.96,2.12,8.94,2.92c2.1,0.32,4.21,0.53,6.33,0.59c-0.11,0.24,3.82,1.04,1.85,1.07c4.47,1.06,6.72,0.58,9.36,0.56
			c4.65,0.83-4.07,0.07-4.6,0.56c6.43,0.99,13.42,0.81,17.05,0.03c-1.33-0.03-1.98-0.08-1.91-0.21c0.2,0.15,2.81-0.04,4.27-0.12
			l0.97-0.4c2.43-0.03,2.12,0.21,0.08,0.69c2.33-0.21,5.01-1.12,7.45-1.01c-3.89,1.02-8.99,1.13-11.05,1.44
			c8.25-0.95,8.53,0.49,18.91-2.01c0.17,0.13-1.53,0.85,0.48,0.39c4.62-1.2,1.05-0.97,2.4-1.67c-3.5,1.01-5.2,1.27-7.36,1.15
			l0.9-0.44c0.18,0.15,2.4-0.33,3.08-0.36l0.45-0.69c-0.14,0.63,3.57,0.42,6.25-0.7c-2.91,0.36-2.14,0.19-3.08-0.32
			c3.65-1.78,4.57-0.5,8.59-2.66c-0.25,0.3-3.91,1.75-0.66,0.77c2.66-0.91,2.15-1.24,3.86-2.01c-1.82,1.19-1.17,1.37-3.15,2.73
			c-4.76,1.66-1.93,0.61-6.59,2.25l4.14-0.74c-4.1,1.28-2.84,1.45-3.12,1.74c7.26-1.52,5.05-2.44,9.57-3.79
			c2.02-1.09-4.19,1.39-0.97-0.14c4.15-1.44,0.83-0.66,5.29-2.71l-0.67,0.54c1.51-0.3,2.76-1.17,4.28-2.01
			c1.63-0.98-2.66-0.68,4.24-4.15c-0.26,0.31-0.34,0.46-0.31,0.52c-1.58,2.4-3.25,4.88-5.05,7.28c7.46-3.29,15.76-7.78,23.45-13.31
			c2.34-0.64-5.07,4.55-4.39,4.53l-3.77,2.19c0.08-0.34,7.52-5.13,3.92-3.45c-6.25,4.41-9.41,5.86-15.65,9.66
			c2.45-0.17,8.54-4.39,12.82-6.49c-1.72,1.03-3.08,2.03-4.47,2.9c3.95-2.11,8.02-4.66,12.2-7.61l0.8-0.85
			c-2.83,1.96-4.8,3.28-5.07,3.44c3.79-2.55,6.49-5.32,6.28-6.04l-0.63,0.49l1.13-1.19L331.57,251.82z M201.44,66.2
			c0.28-0.04,0.5-0.09,0.67-0.17C201.94,66.11,202.12,66.18,201.44,66.2z M250.07,282.15c6.11,0.4,12.32,0.38,18.18-0.27
			c-10.74-0.38-17.95-0.94-0.6-2.1l1.12-0.22c-2.27,0.19-6.18,0.44-9.86,0.71c-2.92,0.65-12.75,1.81-12.69,1.86
			c1.05,0.41,2.65,0.13,4.61,0.36L250.07,282.15z M245.91,279.81c-3.36-0.55-2.62-0.19-3.18-0.01c1.2,0.1,2.39,0.27,3.57,0.32
			C245.86,280.03,245.65,279.93,245.91,279.81z M242.91,280.07c0.38,0.06,0.7,0.11,0.87,0.16L242.91,280.07z M307.72,268.78
			l-0.31,0.17l2.25-1.02C309.35,268.03,308.77,268.28,307.72,268.78z M301.15,271.11l-0.58,0.73l2.16-0.84
			C302.41,270.92,302.09,270.85,301.15,271.11z M279.61,276.38c-1.22,0.94-5.84,1.67-6.02,2.37c-0.27,0.21,0.71,0.1,1.82-0.04
			c1.22-0.22,2.54-0.36,3.91-0.69c0.03-0.1,0.28-0.25,0.72-0.43c-1.37,0.24-2.29,0.29-1.83-0.21c3.63,0.01,2.97-1.27,6.71-1.98
			C285.98,274.7,280.7,275.96,279.61,276.38z M216.96,95.17c0.12,0,0.53-0.03,1.08-0.09l-2.29,1.48c-4.35,2.05-8.18,3.24-11.44,6.25
			c-1.84,0.9-2.94,1.23-4,1.53c0.84-0.55,1.63-1.06,2.31-1.45C212.51,95.48,208.62,100.47,216.96,95.17z M173.07,129.15
			c0.28-0.42,0.31-0.63,0.31-0.63c-5.91,9.29-9.7,17.33-12.19,22.59c0.85-0.86,3.48-5.35,4.88-7.38l-0.58,2.16l-1,1.01
			c-0.47,1.18-0.88,2.38-1.25,3.58c0.72-0.82,2.06-3.53,3.25-5.18c-0.05-0.22,2.72-6.11,3.53-7.79c-1.06,1.39-2.12,2.78-3.08,4.24
			c0.75-1.2,4.49-7.04,6.06-9.32c-0.16-0.2-3.33,3.42-3.13,4.28c-0.69,0.23,2.5-4.27,0.14-1.67c1.99-3.67,6.4-8.63,8.59-10.76
			l0.82,0.04c2.45-2.27,0.94-2.21,3.97-4.81c-3.29,3.6,1.06-0.11-1.56,2.73c1.04-0.71,0.47,0.41,3.16-2.34
			c1.68-2.88,3.27-2.43,5.02-5c1.69-1.14-1.28,1.83,1.77-0.71c3.22-3.24,2.83-3.34,2.65-4.01c-3.44,2.6-3.22,3.68-5.91,5.92
			c1.46-1.84,3-3.63,4.6-5.37c-1.09,0.71-1.85,1.31-2.44,1.85c1.05-0.95,1.88-1.83,2.53-2.66c0.37-0.47,0.73-0.9,1.08-1.27
			c-3.15,2.48-5.85,4.81-6.47,5.06l0.21-0.6c-1.25,0.75-2.85,2.45-3.44,3.38c-2.6,2.5-4.7,5.46-5.54,5.76l0.73-1.19
			C176.87,124.41,176.53,124.77,173.07,129.15z M187.86,258.12c-1.42-2.61-3.44-4.81-12.32-13.44l0.75,0.64
			c-3.74-4.96-8.83-8.57-12.19-15.53c2.28,2.92,2.18,2.77,5.28,5.5l-2.51-3.01c1.08,0.57-1.28-2.52-2.7-5
			c0.6,0.63,1.29,1.19,1.92,1.78c0.65,1.6,3.14,5.26,3.21,5.05c-0.67-0.74,2.67,5.33,5.45,7.9c0.01-0.54-5.04-6.51-2.22-4.3
			c-2.19-2.18-2.01-2.79-3.98-5.31c2.04,2.31,0.98,0.24,2.57,1.88c-1.02-1.39-2.12-2.73-3.08-4.17c-0.02-0.13,4.61,5.96,2.65,2.17
			c-1.48-1.48-4.02-6.36-4.51-6.19l0.08-0.19c-1.66-3.46-1.6-1.07-3.32-5.52c-0.26,0.06-0.05,0.96,0.73,2.49
			c0.79,1.22,1.22,1.24,2.69,3.8c0.28,1.37-1.66-3.16-1.29-1.02c0.09,1.14,4.36,6.56,2.52,5.15l-1.96-3.38
			c-0.54,0.2-1.84-2.33-2.18-2.06c-1.38-2.02-1.73-4.36-3.18-6.41c-0.69-0.82-0.62,1.1-1.87-2.84c-0.56-3.23-3.1-12.24-3.57-15.76
			l-0.76-3.02c-0.29,0.3,0.86,5.86,0.17,3.95c-0.24-1.6-0.58-3.19-0.75-4.8l0.23,0.35c-0.07-1.61-0.47-3.22-0.63-4.69
			c0.43,1.5,0.61,4.98,1.08,4.24c-0.05-2.27,0.04-2.62-0.11-4.69c0.05,0.45,0.11,0.84,0.19,0.78c0.12-4.56-0.72-4.4-0.85-5.56
			c-0.63-4.67-0.76,4.68-1.21,4.11c-0.28-4.57-0.08-9.17,0.42-13.73c0,1.19,0.04,2.38,0.32,1.96c0.71-3.29,0.43-0.02,1.06-4.68
			c-0.82,0.2,0.64-5.91,1.13-9.24c0.78-1.4,0.83-1.72-0.01,1.58c0.51-0.27,1.63-4.69,2.19-6.21c0.2-0.92,0.68-2.46,0.92-3.45
			c-0.66,1.21-0.84,0.53,0.09-2.3l-0.03-0.2c-2.03,4.43-4.68,11.64-4.83,14.77l-0.03-0.9c-1.79,5.48-1.18,12.28-2.26,14.8
			c-0.36-0.27-0.13,1.14-0.65,1.01l0.3,4.22l-0.23-0.88c0.08,2.39,0.09,4.78,0.38,7.15l-0.11-0.18c0.69,3.36,1.54,5.92,2.17,7.93
			c0.23-0.03,0.25-0.26,0.64,0.8c0.33,1.07,0.51,1.9,0.63,2.64l0,0.01h0c0.33,1.69,0.33,2.87,0.73,4.98
			c-0.54-2.12-1.22-4.21-1.61-6.36c-0.45-0.45-0.85,0.19-0.33,3.42c-0.35-1.29-0.79-1.76-0.42-0.15c0.15,0.16,1.35,4.17,1.25,2.54
			c1.69,6,4.78,16.05,10.85,23.63c-4.16-5.53,2.6,4.93-1.73-1.42c2.49,4.81,3.01,3.55,6.31,7.86c0.13,0.49-1.85-2.31-2.92-3.08
			c5.29,7.46,10.62,11.05,17.09,16.78l-0.02,0.61C184.84,255.91,186.25,257.09,187.86,258.12z M202.59,266.95l4.56,2.22l-0.43-0.25
			c1.52,0.69,3.08,1.28,4.65,1.87c-2.69-1.49-4.25-2.82-0.29-1.22c-0.41,0.03,0.61,0.78-0.79,0.25c2.43,1.55,8.1,4.34,6.89,2.98
			c-5.33-1.55-0.8-1.36-4.92-2.69c2.28,0.58,4.28,1.71,6.38,2.33c-2.25-0.52,0.12,1.06,3.23,2.54c1.47,0.33,5.17,1.98,7.65,2.32
			c-0.72-0.68,1.4-0.31-2.4-1.54c1.43,0.35,3.64,0.79,6.03,1.7c-0.99-0.19-2.71-0.6-2.63-0.41c1.48,0.84,3.35,1.33,4.38,1.66
			l2.52,0.42c-0.24-0.09-0.44-0.18-0.58-0.27l2.84,0.14c-3.72-0.5-1.66-0.53-1.57-0.78c-0.2,0.53,2.35,0.53,3.63,0.62
			c-0.89-0.32-1.79-0.56-2.66-0.94c1.35-0.02,4.62,1.02,3.99,0.4c-5.76-0.98-7.97-1.35-13.1-2.58l1.96,0.98
			c-5.87-1.26-3.36-1.66-9.63-3.83c-2.76-0.67-9.34-3.97-9.77-3.39c0.86,0.14-3.51-2.4-5.69-3.23c-2.66-0.45-9.37-4.41-7.52-2.91
			c1.82,1.07,4.43,2.2,5.73,3.36c-1.24-0.57-2.45-1.2-3.64-1.86l2.14,1.69C202.38,265.73,202.32,266.11,202.59,266.95z
			 M293.17,280.27l0.16-0.04l-0.17,0.06L293.17,280.27z"/>
		<path class="st0" d="M275.45,79.71c1.19-0.2,4.14-0.21,3.56-0.58C279.08,79.55,273.73,79.26,275.45,79.71z"/>
		<path class="st0" d="M278.96,80.08c0.21-0.1,0.06-0.28,1.38-0.26c-1.21-0.02-2.42,0.07-3.63,0.11L278.96,80.08z"/>
		<path class="st0" d="M282.56,83.08c1.84-0.26,3.02-0.44,5.9-0.18c1.01,1.08-4.73-0.03-6.07,0.97c5.24,0.23,6.91-0.46,11.25-0.17
			C291.56,82.96,282.74,82.22,282.56,83.08z"/>
		<polygon class="st0" points="280.2,84.33 283.11,84.18 282.83,84.11 279.91,84.26 		"/>
		<path class="st0" d="M215.34,89.27c-0.4-0.19-2,0.95-2.88,1.51C213.22,90.42,214.3,89.93,215.34,89.27z"/>
		<path class="st0" d="M268.81,73.41c-7.35-2.51-14.83-4.56-22.35-6.37C252.94,68.63,258.93,70.14,268.81,73.41z"/>
		<path class="st0" d="M160.53,143.26c2.79-5.64,3.78-8.37,7.46-13.69c-5.46,6.6-5.44,9.83-9.31,15.79L160.53,143.26z"/>
		<path class="st0" d="M159.33,140.03c1.01-0.65-1.71,4.72-0.88,4.1c1.9-3.86,0.37-2.08,2.4-5.44L159.33,140.03z"/>
		<polygon class="st0" points="184,123.69 183.01,125.21 183.91,124.08 		"/>
		<path class="st0" d="M149.06,167.52l0.04-0.73c-0.33,1.03-0.66,2.07-0.91,3.13L149.06,167.52z"/>
		<path class="st0" d="M149.14,166.06l-0.04,0.73L149.14,166.06z"/>
		<polygon class="st0" points="183.4,126.25 185.29,124.42 185.97,123.28 		"/>
		<path class="st0" d="M166.92,143.19l1.06-2.18C167.77,141.45,165.87,144.17,166.92,143.19z"/>
		<path class="st0" d="M146.32,187.18c0.02,1.07,0.15,2.13,0.25,3.2l0.05-0.33c-0.11-1.06-0.21-2.12-0.23-3.18L146.32,187.18z"/>
		<path class="st0" d="M160.66,160.85c0.93-1.4-1.36,4.5,0.06,1.45C161.65,159.48,161.02,160.53,160.66,160.85z"/>
		<path class="st0" d="M152.93,195.09l0.17,1.22C153.04,195.83,152.98,195.42,152.93,195.09z"/>
		<path class="st0" d="M152.93,195.09c-0.11-1.29-0.04-2.59-0.17-3.47C152.57,193.24,152.76,193.83,152.93,195.09z"/>
		<path class="st0" d="M155.6,209.63l-0.26-1.14c0.53,1.1,0.35,0.56-0.1-0.43c-0.33-1.2-0.46-1.09-0.59-1.21l-0.35-0.71
			c0.13,0.37,0.28,0.69,0.4,0.96C155.18,208.97,155.5,210.1,155.6,209.63z"/>
		<path class="st0" d="M181.26,260.42c-3.53-3.02-4.29-3.99-3.88-4.07c-3.2-3.02-3.13-2.1-5.12-3.9
			C175.92,255.89,176.52,256.78,181.26,260.42z"/>
		<path class="st0" d="M172.26,252.46c-0.4-0.39-0.79-0.77-1.26-1.22C171.51,251.76,171.9,252.13,172.26,252.46z"/>
		<polygon class="st0" points="156.84,192.39 157.59,194.89 157.44,193.97 		"/>
		<path class="st0" d="M186.64,264.72c-0.68-0.52-1.81-1.32-2.28-1.82C183.94,263.05,187.32,265.24,186.64,264.72z"/>
		<path class="st0" d="M177.83,248.12c-0.15-0.48-2.24-2.35-2.96-3.23C175.97,246.09,176.46,247.5,177.83,248.12z"/>
		<path class="st0" d="M198.53,270.54c-0.72-0.45-1.71-1.32-1.07-1.29C196.32,268.79,194.55,268.5,198.53,270.54z"/>
		<path class="st0" d="M183.72,253.53l-0.41-0.49l-2.4-1.81C181.85,252,182.74,252.82,183.72,253.53z"/>
		<path class="st0" d="M179.76,242.51c-2.58-1.97,2.85,4.35-1.33,0.68c4.76,5.4,0.03-0.81,3.74,2.95
			C180.06,243.88,179.42,242.41,179.76,242.51z"/>
		<path class="st0" d="M182.18,246.14l1.06,1.01C182.82,246.74,182.48,246.42,182.18,246.14z"/>
		<path class="st0" d="M219.72,272.74c-0.46-0.15-0.79-0.23-1.09-0.3L219.72,272.74z"/>
		<path class="st0" d="M195.59,256.38c-1.47-0.71-2.87-1.53-4.33-2.29c2.82,1.66,9.67,6.1,9.61,5.22c-2.17-1.5-4.89-3.1-6.13-3.6
			L195.59,256.38z"/>
		<path class="st0" d="M245.69,287.99c-0.78,0.06-1.56,0.01-2.35,0.01c0.97,0.16,1.93,0.3,2.9,0.36
			C245.42,288.21,246.96,287.83,245.69,287.99z"/>
		<path class="st0" d="M246.81,288.41l-0.56-0.05C246.37,288.38,246.54,288.4,246.81,288.41z"/>
		<path class="st0" d="M210.98,269.17c-1.45-0.71-2.59-1.31-3.95-1.89C207.5,267.71,211.05,269.61,210.98,269.17z"/>
		<path class="st0" d="M261.98,287.24c-1.26,0.1-2.52,0.25-3.78,0.3c1.38-0.03,2.76-0.17,4.13-0.25L261.98,287.24z"/>
		<polygon class="st0" points="279.69,286.11 280.36,286.08 283.38,285.14 282.71,285.17 		"/>
		<path class="st0" d="M256.42,275.72c-2.31-0.07-4.13,0.52-3.53,0.64l4.51-0.02c-1.15-0.51-1.25,0.01-3.86-0.12L256.42,275.72z"/>
		<path class="st0" d="M367.66,198.31c0.35,1.18-0.71,6.68-1.16,6.89c0-0.76,0.41-3.74-0.14-1.91l0.02,4.48
			c-1.69,5.62-0.12-4.59-0.15-7.44c-1.02,5.78-0.69,7.65-2.45,13.71c0.57-1.77,1.08-2.85,1.52-3.76c0.55-0.1-0.98,5.66-2.59,9.59
			c1.18-2.45,0.84-0.92,0.37,1.03c-0.11,0.34-0.16,0.57-0.18,0.75l-0.16,0.66l0.18-0.48c0.05,0.06,0.16-0.02,0.4-0.33
			c1.14-3.42,2.49-5.87,3.05-8.15c-1.4,1.98,1.8-7.7,1.8-10.68c0.21-1.1,0.2-2.23,0.31-3.34l0.12-1.25
			c0.13-0.24,0.23,0.12,0.23,2.06c-0.04-1.62,0.57-6.91,0.16-6.44c0.04-4.03,0.18-8.07-0.25-12.05c0.01-0.38,0.03-0.75,0.08-1.04
			c-0.09-0.41-0.15-0.48-0.19-0.42c-1.58-17.31-7.5-34.18-16.97-48.67c1.42,2.13,2.22,4.24,3.48,6.55c-2.51-3.12,2.04,3.8,0.87,3.11
			c-0.95-1.5-2.26-3.71-2.88-5.14c-0.55-0.34,0.31,1.69-0.13,1.65c2.8,5.77,4.53,6.04,6.83,11.97c-0.43-0.1-1.46-1.78,0.14,2.03
			l-0.47-0.94c2.89,5.99,0.94,5.1,3.27,8.72l-0.54,0.05c1.31,2.78,2.63,8.41,3.29,11.64l-0.13-0.17c2.01,9.04,1.11,5.07,2.08,15.46
			c-0.26-1.6-0.62-3.17-0.93-4.75c0.01,3.58,0.78,4.35,0.64,6.95c-0.1-0.18-0.49,0.41-0.56-2.01c0.32,4.19,0.58,8.43,0.34,12.69
			C367.04,202.42,367.39,198.76,367.66,198.31z"/>
		<path class="st0" d="M363.78,214.04c-0.22,0.64-0.4,1.39-0.67,2.25C363.41,215.46,363.58,214.73,363.78,214.04z"/>
		<path class="st0" d="M349.61,128.5l2.03,3.02C351.04,130.57,350.39,129.59,349.61,128.5z"/>
		<path class="st0" d="M357.79,231.44c1.35-1.82-0.49,1.64-0.52,2.08c1.39-2.3,2.61-4.69,3.7-7.17c-0.2-0.05-0.07-0.87-0.31-0.8
			C359.71,227.52,358.92,229.57,357.79,231.44z"/>
		<path class="st0" d="M362.31,224.39c0-0.3,0.23-1.13,0.44-2.08c-0.47,1.41-1.18,2.7-1.78,4.05
			C361.12,226.39,361.45,226,362.31,224.39z"/>
		<path class="st0" d="M352.03,220.79l0.52-1.15l0.53-1.84C352.79,218.82,352.45,219.82,352.03,220.79z"/>
		<path class="st0" d="M358.49,202.08c-0.59,1.44-0.86,4.32-0.99,5.29C358.13,204.1,357.96,205.53,358.49,202.08z"/>
		<polygon class="st0" points="354.51,205.43 354.9,202.37 354.79,202.64 		"/>
		<path class="st0" d="M330.6,109.93l-1.26-1.11C329.91,109.34,330.29,109.67,330.6,109.93z"/>
		<path class="st0" d="M350.14,132.13c-4.14-7.23,3.47,4.24,2.61,1.71c-0.86-1.26-1.81-2.45-2.72-3.67l0.38,0.21
			c-1.06-1.52-2.06-3.08-3.25-4.51c0.41,1.11,0.91,1.8,0.46,1.82c-4.37-5.93-1.03-2.12-4.03-6.67c-1.85-2.04-3.58-4.19-5.53-6.13
			l0.54,0.4c-0.49-0.49-0.74-0.68-0.95-0.81c-6.43-6.66-13.54-12.56-21.04-17.78c-4.29-2.55,1.9,2.08-1.44,0.47
			c4.76,3.23,11.09,8.98,11.92,8.77c-0.21-0.05-0.64-0.14,0.21,0.67l2.88,1.79l-2.24-2.29c2.99,1.7,10.76,9.48,11.68,11.33
			c-4.43-4.38-2.68-1.73-8.63-7.96c0.16,0.4,1.09,1.7-0.4,0.47C338.1,116.64,343.84,123.69,350.14,132.13z"/>
		<path class="st0" d="M270.07,74.45l0.1-0.03C269.99,74.39,269.92,74.39,270.07,74.45z"/>
		<path class="st0" d="M273.14,75.71c1.58,0.36,3.19,0.66,4.76,1.07c-2.34-0.93-4.71-1.75-7.06-2.63l-0.68,0.28
			c0.66,0.11,3.22,0.81,4.11,1.35L273.14,75.71z"/>
		<path class="st0" d="M283.26,78.54c-3.69-1.31-3.71-0.68-1.86,0.39c-3.4-1.12-1.5-1.31-4-1.68c-0.08,0.43,4.06,1.88,5.03,2.2
			L283.26,78.54z"/>
		<polygon class="st0" points="308.71,92.17 307.64,91.8 309.92,93.28 		"/>
		<path class="st0" d="M307.64,91.8l-2.27-1.46c0.07,0.25,0.13,0.5,0.44,0.84L307.64,91.8z"/>
		<path class="st0" d="M299.31,86.7c-0.97-0.6-2.06-1.24-3.43-1.93C297.04,85.37,298.18,86.02,299.31,86.7z"/>
		<path class="st0" d="M301.93,88.33l-0.04-0.11l-2.58-1.52C300.25,87.27,301.09,87.8,301.93,88.33z"/>
		<path class="st0" d="M305.37,90.34c-0.17-0.57-0.36-1.27-3.84-3.05l0.36,0.93C303.06,88.9,304.24,89.58,305.37,90.34z"/>
		<polygon class="st0" points="356.6,183.06 356.17,180.27 356.12,180.58 356.56,183.37 		"/>
		<path class="st0" d="M354.37,166.85c-0.24-0.67-0.43-1.17-0.62-1.62C353.97,165.94,354.17,166.5,354.37,166.85z"/>
		<path class="st0" d="M348.06,156.27c-0.84-3.18,2.21,3.98,0.1-1.7c0.11-0.63,1.79,1.78,2.5,4.59c-0.39-0.11-1.12-2.57-0.89-0.78
			c0.98,1.67,0.94,2.46,1.25,1.65c1.28,2.99,1.91,3.12,2.72,5.2c-1.13-3.71-3.37-11.77-6.29-15.91c-1.8-2.17-1.87-0.27-2.74,0.13
			C344.82,149.86,347.45,156.22,348.06,156.27z"/>
		<path class="st0" d="M348.88,161.38c0.42,1.43,0.59,1.85,0.95,2.7C350.07,163.75,349.27,162.51,348.88,161.38z"/>
		<path class="st0" d="M338.06,126.96c-0.26-0.19-2.32-2.24-2.08-1.63c1.03,1.05,1.98,2.15,2.9,3.3
			C338.27,127.8,338.18,127.41,338.06,126.96z"/>
		<path class="st0" d="M340.11,130.12l-1.23-1.49C339.16,129.02,339.54,129.48,340.11,130.12z"/>
		<path class="st0" d="M338,126.74l0.06,0.22C338.12,126.99,338.13,126.97,338,126.74z"/>
		<path class="st0" d="M289.48,81.44c0.17-0.21-1.76-0.92-2.72-1.28C287.5,80.53,288.53,81.1,289.48,81.44z"/>
		<path class="st0" d="M215.99,61.58l-1.74-0.44C214.85,61.35,215.17,61.45,215.99,61.58z"/>
		<path class="st0" d="M188.37,66.56c-0.05,0.05-0.18,0.09-0.35,0.13C188.19,66.66,188.31,66.62,188.37,66.56z"/>
		<path class="st0" d="M188.01,66.69c-1.19,0.19-4.85-0.23-6.16,0.14l0.17-0.1l-2.45,0.22C181.86,66.86,186.67,66.95,188.01,66.69z"
			/>
	</g>
</g>
</svg>
