<?xml version="1.0" encoding="utf-8"?>
<!-- Generator: Adobe Illustrator 13.0.0, SVG Export Plug-In . SVG Version: 6.00 Build 14948)  -->
<!DOCTYPE svg PUBLIC "-//W3C//DTD SVG 1.1//EN" "http://www.w3.org/Graphics/SVG/1.1/DTD/svg11.dtd">
<svg version="1.1" id="Layer_1" xmlns="http://www.w3.org/2000/svg" xmlns:xlink="http://www.w3.org/1999/xlink" x="0px" y="0px"
	 width="504px" height="360px" viewBox="0 0 504 360" enable-background="new 0 0 504 360" xml:space="preserve">
<g>
	<path fill="#FFFFFF" d="M189.141,291.087c0,0-33.444-36.96-59.578-50.701c-26.133-13.743-40.705-15.603-33.444-36.959
		c7.263-21.356,40.732-26.425,53.301-23.486c12.567,2.938,18.046-1.3,18.046-1.3L155.434,56.484c0,0,2.404-21.977,15.899-22.123
		C184.83,34.217,194,42.858,198.54,58.516c4.54,15.657,17.093,43.812,17.093,43.812s6.723-22.358,26.461-18.104
		c19.739,4.253,18.262,23.145,18.262,23.145s8.955-15.803,21.291-12.093c12.336,3.709,19.809,15.204,19.809,15.204
		s11.424-18.424,22.678-8.314c11.252,10.109,31.205,38.808,33.635,103.432c2.426,64.623-23.814,98.769-59.602,111.547
		C262.375,329.92,219.2,316.938,189.141,291.087z"/>
	<path fill="#CCCCCC" d="M334.969,290.565c-9.17,9.116-20.316,15.214-30.246,19.11c-9.9,3.898-18.613,5.599-22.445,6.098
		l-0.084,0.011l-0.004,0.002c-0.641,0.108-19.293,2.472-40.139-3.829c-11.356-3.418-23.326-9.316-33.776-19.396
		c-19.266-18.588-33.525-31.211-45.617-40.288c-12.072-9.069-22.085-14.594-32.308-18.646v0.001
		c-1.024-0.428-7.253-3.038-12.736-4.696c-0.519-0.144-1.979-0.769-3.489-1.762c-2.315-1.485-4.875-3.808-6.481-6.506
		c-1.606-2.74-2.444-5.647-1.808-9.595c0.039-0.24,0.103-0.512,0.192-0.812c0.574-2.034,2.617-5.352,6.122-8.587
		c5.232-4.902,13.534-9.715,23.797-12.177c10.277-2.472,22.506-2.689,36.016,1.368c0.778,0.234,1.554,0.479,2.329,0.741
		c2.21,0.742,4.62,0.294,6.416-1.191c1.797-1.485,2.687-3.771,2.37-6.08c-0.002-0.019-0.975-7.113-2.438-18.009
		c-2.196-16.34-5.49-41.178-8.238-63.192c-1.375-11.006-2.613-21.31-3.508-29.469c-0.447-4.076-0.807-7.617-1.055-10.418
		c-0.25-2.781-0.379-4.908-0.377-5.777c-0.017-2.835,0.351-5.384,0.994-7.521c0.98-3.246,2.534-5.471,4.313-6.822
		c1.803-1.33,3.914-2.078,7.241-1.852c1.335,0.105,2.497,0.326,3.543,0.639c3.153,0.977,5.503,2.727,7.972,5.893
		c2.358,3.055,4.572,7.443,6.721,12.827c-0.058-0.192-0.113-0.384-0.168-0.571c-4.54-15.658-13.711-24.3-27.207-24.154
		c-13.494,0.146-15.898,22.122-15.898,22.122l6.313,64.106c0.714,5.549,1.434,11.09,2.139,16.465
		c1.969,15.025,3.808,28.725,4.996,37.519c-0.62-0.13-1.238-0.252-1.854-0.368l0.436,4.436c0,0-5.477,4.237-18.045,1.299
		c-12.568-2.938-46.038,2.131-53.301,23.486c-7.262,21.356,7.313,23.216,33.445,36.959c22.988,12.088,51.629,42.138,58.191,49.194
		c1.113,1.042,2.248,2.11,3.401,3.199c29.951,24.719,72.01,36.858,107.008,24.362c17.436-6.225,32.602-17.523,43.295-34.944
		C339.109,286.184,337.09,288.455,334.969,290.565z M218.302,131.912c1.313,5.08,2.112,8.223,2.114,8.23
		c0.914,3.592,4.564,5.762,8.156,4.85c3.591-0.913,5.762-4.564,4.849-8.156c-0.003-0.014-3.038-11.951-6.95-26.751
		c0.002-0.011,0.006-0.021,0.008-0.031v-0.001c0.025-0.104,0.117-0.482,0.289-1.055c0.496-1.683,1.727-5.025,3.732-7.927
		c1-1.455,2.174-2.794,3.484-3.847c1.318-1.059,2.742-1.842,4.437-2.31c3.013-0.819,5.583-0.716,7.966-0.011
		c2.49,0.749,4.813,2.234,6.832,4.4c1.973,2.119,3.611,4.89,4.658,8.043l7.6,28.479c0.623,2.332,2.402,4.05,4.559,4.698
		c1.148,0.346,2.406,0.387,3.652,0.055c3.582-0.956,5.707-4.632,4.756-8.214l-5.75-21.543c0.242-0.691,0.928-2.293,2.109-3.607
		c0.691-0.779,1.52-1.479,2.586-2.031c1.068-0.547,2.398-0.978,4.305-1.092c2.67-0.151,5.17,0.143,7.434,0.824
		c3.047,0.922,5.666,2.513,7.816,4.812c2.145,2.306,3.859,5.356,4.855,9.423l3.582,15.057c0.572,2.414,2.385,4.21,4.6,4.877
		c1.094,0.328,2.287,0.382,3.479,0.1c3.605-0.859,5.832-4.475,4.977-8.08l-3.59-15.092c-0.273-1.121-0.59-2.213-0.947-3.274
		c0.887-0.833,2.053-1.779,3.334-2.481c1.115-0.621,2.291-1.068,3.471-1.258c1.188-0.186,2.379-0.159,3.842,0.272
		c1.342,0.376,3.68,1.745,6.254,4.374c3.193,3.209,6.725,8.178,10.029,14.593c-5.943-12.479-12.348-20.208-17.16-24.531
		c-11.252-10.11-22.676,8.313-22.676,8.313s-7.475-11.494-19.809-15.203c-12.338-3.709-21.293,12.094-21.293,12.094
		s1.477-18.893-18.261-23.146c-19.738-4.253-26.461,18.105-26.461,18.105s-8.057-18.072-13.596-33.31
		c3.307,10.854,7.811,27.407,11.564,41.595C215.171,119.832,216.991,126.832,218.302,131.912z"/>
	<path d="M366.252,207.24c-0.947-16.322-3.969-31.768-6.818-46.98c-3.309-17.594-8.785-32.365-15.164-43.492
		c-3.201-5.564-6.623-10.227-10.256-13.904c-3.643-3.656-7.49-6.421-11.93-7.783c-4.063-1.234-8.057-1.17-11.445-0.351
		c-4.154,1.005-7.422,2.959-9.881,4.862c-0.109-0.119-0.215-0.24-0.326-0.359c-3.801-4.082-8.578-6.955-13.764-8.508
		c-3.855-1.159-7.934-1.607-12.057-1.369c-3.689,0.203-6.979,1.152-9.699,2.564c-1.49,0.768-2.797,1.658-3.943,2.607
		c-1.223-2.051-2.637-3.967-4.246-5.701c-3.443-3.707-7.789-6.609-12.794-8.113c-4.76-1.443-10.088-1.549-15.391-0.076
		c-3.635,0.996-6.754,2.746-9.293,4.796c-1.622,1.312-3.02,2.733-4.23,4.189c-1.514-5.544-3.029-10.983-4.447-15.917
		c-1.179-4.097-2.294-7.846-3.295-11.039c-1.008-3.203-1.884-5.814-2.674-7.818c-2.443-6.145-5.086-11.759-8.752-16.555
		c-3.626-4.776-8.55-8.736-14.754-10.573c-2.02-0.607-4.146-0.996-6.359-1.167c-6.131-0.516-11.975,1.137-16.41,4.549
		c-4.457,3.393-7.425,8.254-9.041,13.639c-1.077,3.584-1.582,7.438-1.564,11.451c0.021,2.25,0.288,5.521,0.726,10.057
		c1.538,15.719,5.285,45.273,8.657,71.009c1.969,15.026,3.807,28.725,4.996,37.519c-18.152-3.82-34.553-1.264-47.313,4.199
		c-7.251,3.102-13.363,7.118-18.115,11.546c-4.73,4.453-8.188,9.25-9.815,14.532c-0.239,0.801-0.434,1.613-0.573,2.44
		c-0.824,4.814-0.336,9.384,1.01,13.313c2.023,5.922,5.763,10.354,9.483,13.515c1.873,1.584,3.761,2.862,5.551,3.872
		c1.798,1.009,3.456,1.749,5.103,2.248c2.402,0.72,5.342,1.803,7.616,2.69c1.142,0.442,2.124,0.84,2.815,1.123
		c0.691,0.282,1.068,0.443,1.068,0.443l0.146,0.061c9.136,3.638,17.83,8.384,29.207,16.908c11.357,8.517,25.29,20.813,44.355,39.211
		c12.275,11.845,26.293,18.705,39.228,22.59c23.928,7.158,44.276,4.465,45.84,4.268v0.001c6.537-0.877,21.357-3.914,37.15-12.18
		c7.881-4.138,15.982-9.597,23.248-16.809c7.262-7.207,13.676-16.19,18.051-27.192c1.668-4.193,3.104-8.322,4.328-12.396
		C366.021,240.754,367.197,223.552,366.252,207.24z M343.684,266.595c-3.645,9.146-8.916,16.547-15.037,22.629
		c-9.172,9.119-20.316,15.215-30.246,19.111c-9.9,3.898-18.613,5.6-22.445,6.098l-0.084,0.011l-0.006,0.001
		c-0.639,0.11-19.293,2.473-40.138-3.828c-11.356-3.417-23.325-9.315-33.775-19.395c-19.266-18.588-33.525-31.212-45.619-40.289
		c-12.071-9.069-22.084-14.594-32.308-18.646v0.001c-1.023-0.429-7.252-3.04-12.735-4.696c-0.519-0.145-1.979-0.77-3.488-1.763
		c-2.316-1.486-4.877-3.808-6.482-6.506c-1.605-2.74-2.444-5.646-1.807-9.595c0.039-0.239,0.103-0.512,0.193-0.812
		c0.573-2.034,2.615-5.352,6.121-8.587c5.231-4.901,13.533-9.714,23.797-12.177c10.277-2.472,22.506-2.689,36.016,1.368
		c0.777,0.233,1.554,0.479,2.328,0.741c2.211,0.742,4.62,0.293,6.416-1.191c1.797-1.486,2.687-3.771,2.371-6.079
		c-0.002-0.02-0.975-7.115-2.438-18.01c-2.196-16.34-5.491-41.178-8.24-63.193c-1.375-11.005-2.612-21.309-3.508-29.467
		c-0.445-4.076-0.807-7.619-1.054-10.42c-0.249-2.78-0.378-4.906-0.377-5.777c-0.017-2.834,0.351-5.383,0.995-7.521
		c0.98-3.247,2.533-5.472,4.312-6.823c1.803-1.329,3.914-2.078,7.241-1.85c1.335,0.104,2.498,0.325,3.543,0.639
		c3.154,0.976,5.502,2.726,7.971,5.893c2.433,3.148,4.709,7.712,6.921,13.324c0.563,1.415,1.398,3.863,2.347,6.896
		c3.351,10.676,8.287,28.788,12.348,44.129c2.033,7.68,3.854,14.68,5.164,19.76c1.314,5.079,2.113,8.223,2.115,8.229
		c0.912,3.592,4.564,5.763,8.156,4.85c3.59-0.913,5.761-4.564,4.848-8.155c-0.003-0.015-3.038-11.952-6.95-26.752
		c0.003-0.011,0.006-0.021,0.009-0.031l0,0c0.023-0.104,0.115-0.483,0.287-1.055c0.498-1.684,1.729-5.025,3.734-7.928
		c0.998-1.455,2.174-2.793,3.483-3.848c1.319-1.057,2.743-1.84,4.438-2.309c3.013-0.818,5.583-0.716,7.965-0.01
		c2.491,0.748,4.814,2.233,6.831,4.399c1.974,2.12,3.611,4.89,4.659,8.044l7.6,28.477c0.623,2.333,2.4,4.051,4.557,4.699
		c1.15,0.346,2.408,0.387,3.656,0.055c3.578-0.955,5.705-4.633,4.752-8.213l-5.748-21.543c0.242-0.692,0.928-2.294,2.109-3.608
		c0.691-0.778,1.518-1.479,2.584-2.03c1.072-0.547,2.398-0.979,4.305-1.093c2.67-0.151,5.172,0.144,7.436,0.823
		c3.047,0.924,5.666,2.514,7.814,4.813c2.146,2.306,3.861,5.356,4.857,9.422l3.58,15.059c0.574,2.413,2.385,4.209,4.602,4.875
		c1.096,0.33,2.287,0.383,3.479,0.1c3.605-0.857,5.832-4.475,4.977-8.079l-3.592-15.093c-0.271-1.121-0.588-2.212-0.947-3.273
		c0.887-0.833,2.053-1.779,3.336-2.482c1.115-0.62,2.291-1.066,3.469-1.256c1.188-0.186,2.381-0.16,3.842,0.271
		c1.342,0.376,3.682,1.746,6.256,4.375c3.893,3.912,8.291,10.439,12.168,19.018c3.889,8.582,7.311,19.211,9.6,31.412
		c2.869,15.272,5.738,30.136,6.609,45.28c0.869,15.152-0.207,30.572-5.223,47.281C346.52,258.994,345.211,262.756,343.684,266.595z"
		/>
</g>
</svg>
